<?xml version="1.0" encoding="UTF-8"?>
<!DOCTYPE svg PUBLIC "-//W3C//DTD SVG 1.1//EN" "http://www.w3.org/Graphics/SVG/1.1/DTD/svg11.dtd">
<!-- Creator: CorelDRAW 2021 (64-Bit) -->
<svg xmlns="http://www.w3.org/2000/svg" xml:space="preserve" width="3.1072in" height="0.655276in" version="1.1" style="shape-rendering:geometricPrecision; text-rendering:geometricPrecision; image-rendering:optimizeQuality; fill-rule:evenodd; clip-rule:evenodd"
viewBox="0 0 2983.17 629.12"
 xmlns:xlink="http://www.w3.org/1999/xlink"
 xmlns:xodm="http://www.corel.com/coreldraw/odm/2003">
 <defs>
  <style type="text/css">
   <![CDATA[
    .fil2 {fill:#281451}
    .fil3 {fill:#E25F81}
    .fil1 {fill:#E6E6E6}
    .fil0 {fill:#281451;fill-rule:nonzero}
   ]]>
  </style>
 </defs>
 <g id="Layer_x0020_1">
  <metadata id="CorelCorpID_0Corel-Layer"/>
  <path class="fil0" d="M2829.07 582.87c48.54,0 72.33,-17.37 88.67,-66.16l65.43 -194.35 -54.66 0 -40.43 148.59 -0.85 0 -40.43 -148.59 -56.95 0 66.16 190.3c0.36,0.73 -1.58,8.35 -1.58,9.02 -3.57,15.07 -12.95,21.13 -31.96,21.13 -1.94,0 -11.32,0 -12.95,-0.36l0 39.89c1.63,0.37 17.73,0.54 19.55,0.54z"/>
  <path class="fil0" d="M2661.71 512.48l51.81 0 0 -106.23c0,-26.75 14.89,-42.37 40.43,-42.37 7.45,0 14.53,1.21 18.77,3.03l0 -45.58c-3.51,-1.09 -8.66,-1.94 -14.71,-1.94 -22.34,0 -38.5,13.07 -45.21,37.23l-1.09 0 0 -34.26 -50 0 0 190.12z"/>
  <path class="fil0" d="M2546.46 278.59l0 43.77 -26.81 0 0 39.04 26.81 0 0 99.81c0,37.1 17.37,51.99 62.04,51.99 10.47,0 19.37,-0.91 24.64,-2.12l0 -38.13c-3.15,0.48 -7.93,0.85 -12.59,0.85 -15.25,0 -22.34,-6.9 -22.34,-21.43l0 -90.97 35.11 0 0 -39.04 -35.11 0 0 -43.77 -51.75 0z"/>
  <path class="fil0" d="M2342.36 378.22c0,28.03 18.4,46.85 54.41,54.96l35.11 7.81c17.01,4.11 23.42,9.44 23.42,19.01 0,12.41 -11.86,20.21 -31.6,20.21 -20.58,0 -33.17,-9.26 -35.65,-25.18l-50.54 0c2.84,37.04 34.08,61.49 84.8,61.49 50.17,0 84.56,-24.64 84.56,-62.04 0,-28.39 -15.43,-43.46 -53.51,-51.94l-36.38 -7.81c-16.64,-3.93 -24.81,-10.29 -24.81,-19.73 0,-12.23 11.68,-20.34 29.6,-20.34 19.13,0 31.42,9.38 32.45,24.63l47.69 0c-0.67,-36.92 -31.72,-61.01 -79.41,-61.01 -48.78,0 -80.14,23.79 -80.14,59.92z"/>
  <path class="fil0" d="M2311.85 322.36l-51.81 0 0 108.89c0,25.18 -14.34,41.7 -37.41,41.7 -22.88,0 -35.47,-13.49 -35.47,-38.86l0 -111.73 -51.75 0 0 122.57c0,44.31 27.3,71.12 68.46,71.12 46.29,0 55.09,-37.77 57.99,-37.77l0 34.2 49.99 0 0 -190.12z"/>
  <path class="fil0" d="M1990.51 515.5c43.09,0 59.14,-35.65 60.16,-35.65l0 32.62 51.03 0 0 -255.91 -51.75 0 0 98.42c-1.91,0 -15.89,-35.59 -59.08,-35.59 -47.69,0 -77.84,37.41 -77.84,97.69 0,60.83 29.96,98.42 77.48,98.42zm-4.24 -154.65c25.72,0 42.24,21.97 42.24,56.59 0,34.74 -16.52,56.35 -42.24,56.35 -26.03,0 -42.01,-21.43 -42.01,-56.35 0,-34.8 15.98,-56.59 42.01,-56.59z"/>
  <path class="fil0" d="M1710.69 512.48l51.81 0 0 -109.07c0,-24.64 14.71,-41.65 37.95,-41.65 23.24,0 34.92,14.16 34.92,38.98l0 111.73 51.75 0 0 -122.51c0,-44.55 -23.73,-71.12 -65.92,-71.12 -46.76,0 -58.01,37.41 -60.53,37.41l0 -33.89 -50 0 0 190.12z"/>
  <path class="fil0" d="M1650.46 301.47c15.62,0 27.66,-11.92 27.66,-26.81 0,-15.07 -12.05,-26.75 -27.66,-26.75 -15.61,0 -27.66,11.68 -27.66,26.75 0,14.89 12.05,26.81 27.66,26.81z"/>
  <polygon class="fil0" points="1624.56,512.48 1676.31,512.48 1676.31,322.36 1624.56,322.36 "/>
  <path class="fil0" d="M1481.29 515.5c39.45,0 57.85,-32.08 59.07,-32.08l0 29.05 50 0 0 -130.68c0,-38.31 -31.78,-63.49 -80.5,-63.49 -50.36,0 -81.77,25.36 -83.71,62.22l47.33 0c2.48,-13.98 14.71,-23.55 34.08,-23.55 19.49,0 31.9,10.29 31.9,28.03l0 12.59 -47.88 2.78c-47.33,2.85 -73.96,22.88 -73.96,57.5 0,34.2 27.48,57.62 63.68,57.62zm17.01 -37.41c-17.55,0 -29.23,-8.9 -29.23,-23.06 0,-13.5 10.95,-22.15 30.33,-23.61l40.07 -2.48c0,27.84 -7,49.15 -41.16,49.15z"/>
  <path class="fil0" d="M1213.87 512.48l51.75 0 0 -108.52c0,-25 14.41,-42.19 38.86,-42.19 23.6,0 35.65,14.89 35.65,39.34l0 111.37 51.75 0 0 -122.33c0,-44 -24.09,-71.3 -66.28,-71.3 -46.82,0 -58.66,37.41 -60.83,37.41l0 -99.69 -50.91 0 0 255.91z"/>
  <path class="fil0" d="M1071.51 516.9c62.77,0 106.53,-36.14 112.58,-93.27l-52.11 0c-5.69,30.33 -28.57,48.97 -60.29,48.97 -40.98,0 -66.7,-33.72 -66.7,-88.31 0,-53.93 26.09,-87.77 66.52,-87.77 31.17,0 55.33,20.52 60.29,51.94l52.11 0c-4.06,-57.26 -50.9,-96.3 -112.4,-96.3 -74.15,0 -121.12,49.81 -121.12,132.31 0,82.62 46.61,132.43 121.12,132.43z"/>
  <path class="fil1" d="M347.8 0l174.13 174.13c35.29,35.29 37.04,91.92 5.26,129.33l-325.21 325.66 -178.6 -178.93c-30.87,-35.42 -31.16,-88.68 -0.87,-124.43l325.29 -325.76z"/>
  <path class="fil2" d="M471.84 0l174.13 174.13c35.29,35.29 37.04,91.92 5.26,129.33l-325.21 325.66 -178.6 -178.93c-30.87,-35.42 -31.16,-88.68 -0.87,-124.43l325.29 -325.76z"/>
  <path class="fil3" d="M615.79 0l174.13 174.13c35.29,35.29 37.04,91.92 5.26,129.33l-325.21 325.66 -178.6 -178.93c-30.87,-35.42 -31.16,-88.68 -0.87,-124.43l325.29 -325.76z"/>
 </g>
</svg>
